<svg width="56px" height="56px" viewBox="0 0 56 56" version="1.1" xmlns="http://www.w3.org/2000/svg" xmlns:xlink="http://www.w3.org/1999/xlink">
  <g id="Page-1" stroke="none" stroke-width="1" fill="none" fill-rule="evenodd">
  	<g id="2.-Volgpagina" transform="translate(-692.000000, -20.000000)" fill="#FFFFFF">
    	<g id="Header">
      	<g id="Navigation" transform="translate(143.000000, 20.000000)">
          <g id="Logo-white" transform="translate(549.000000, 0.000000)">
            <path d="M28.1542905,5.13330129 C26.5875724,5.14823953 25.3244742,6.43790758 25.3393575,8.00941042 C25.3542409,9.58091326 26.6401602,10.8486719 28.2068782,10.8347295 C29.7726041,10.8197913 31.0357023,9.52912736 31.0218112,7.95662863 C31.0069278,6.38512579 29.7210085,5.11836305 28.1542905,5.13330129 M27.794114,45.1657925 C26.2283882,45.1797349 24.9642977,46.4694029 24.9791811,48.0419017 C24.9930722,49.6134045 26.2799837,50.8811631 27.8457095,50.8672208 C29.4124276,50.8522825 30.6755258,49.5606227 30.6606425,47.9891199 C30.6467514,46.417617 29.3598398,45.1508543 27.794114,45.1657925 M2.8407307,25.1495469 C1.27401265,25.1495469 0,26.4272644 0,27.9997631 C0,29.5722618 1.27401265,30.8509751 2.8407307,30.8509751 C4.40645653,30.8509751 5.6814614,29.5722618 5.6814614,27.9997631 C5.6814614,26.4272644 4.40645653,25.1495469 2.8407307,25.1495469 M50.6033062,20.4788572 L50.6033062,8.76130183 L31.4355676,27.9997631 L50.6033062,47.2392202 L50.6033062,35.5226607 C51.4089902,35.7995161 52.2593242,35.9837544 53.1592693,35.9837544 C54.0582222,35.9837544 54.9085561,35.7995161 55.7152324,35.5226607 L55.7152324,53.4336104 C55.7152324,54.4713201 55.0931094,55.4064539 54.1375999,55.8038111 C53.8220734,55.9362635 53.4886869,56 53.1592693,56 C52.495473,56 51.8406067,55.7390787 51.3514414,55.2481086 L27.9995039,31.8090143 L4.64855862,55.2481086 C4.15840111,55.7390787 3.50452701,56 2.8407307,56 C2.5113131,56 2.17792661,55.9362635 1.86140789,55.8038111 C0.906890625,55.4064539 0.283775404,54.4713201 0.283775404,53.4336104 L0.283775404,35.5226607 C1.09144386,35.7995161 1.94177785,35.9837544 2.8407307,35.9837544 C3.73968355,35.9837544 4.59001754,35.7995161 5.39669378,35.5226607 L5.39669378,47.2392202 L24.5644324,27.9997631 L5.39669378,8.76130183 L5.39669378,20.4788572 C4.59001754,20.201006 3.73968355,20.0177636 2.8407307,20.0177636 C1.94177785,20.0177636 1.09144386,20.201006 0.283775404,20.4788572 L0.283775404,2.56691167 C0.283775404,1.52920194 0.906890625,0.594068117 1.86140789,0.196710935 C2.81691738,-0.200646247 3.91530679,0.017452056 4.64855862,0.753409343 L27.9995039,24.1905119 L51.3514414,0.753409343 C52.083701,0.017452056 53.1820904,-0.202638012 54.1375999,0.196710935 C55.0931094,0.594068117 55.7152324,1.52920194 55.7152324,2.56691167 L55.7152324,20.4788572 C54.9085561,20.201006 54.0582222,20.0177636 53.1592693,20.0177636 C52.2593242,20.0177636 51.4089902,20.201006 50.6033062,20.4788572 M53.1592693,25.1495469 C51.5935435,25.1495469 50.3195308,26.4272644 50.3195308,27.9997631 C50.3195308,29.5722618 51.5935435,30.8509751 53.1592693,30.8509751 C54.7249951,30.8509751 56,29.5722618 56,27.9997631 C56,26.4272644 54.7249951,25.1495469 53.1592693,25.1495469"></path>
          </g>
        </g>
      </g>
    </g>
  </g>
</svg>